<svg id="Layer_1" xmlns="http://www.w3.org/2000/svg" viewBox="0 0 169.7 199.6" width="2126" height="2500"><style>.st0{fill:#f0b90b}</style><path class="st0" d="M19.1 99.8l.1 38.6L52 157.7v22.6L0 149.8V88.5l19.1 11.3zM19.1 61.2v22.5L0 72.4V49.9l19.1-11.3 19.2 11.3zM65.7 49.9l19.1-11.3L104 49.9 84.8 61.2z"/><path class="st0" d="M32.9 130.4v-22.6L52 119.1v22.5l-19.1-11.2zM65.7 165.8l19.1 11.3 19.2-11.3v22.5l-19.2 11.3-19.1-11.3zM131.4 49.9l19.1-11.3 19.2 11.3v22.5l-19.2 11.3V61.2l-19.1-11.3zM150.5 138.4l.1-38.6 19.1-11.3v61.3l-52 30.5v-22.6l32.8-19.3z"/><path class="st0" d="M136.8 130.4l-19.1 11.2v-22.5l19.1-11.3v22.6z"/><path class="st0" d="M136.8 69.2l.1 22.6-32.9 19.3v38.7L84.9 161l-19.1-11.2v-38.7L32.9 91.8V69.2l19.2-11.3 32.7 19.4 32.9-19.4 19.2 11.3zM32.9 30.6L84.8 0l52 30.6-19.1 11.3-32.9-19.4L52 41.9 32.9 30.6z"/></svg>